#!OML:ASF E:/inclinewalkrobotboard/Project1/Captureday1/Session1/subject1.ASF
:FULLY-SPECIFIED
:DEGREES
263
root 0 0 0 -0.8805199661005716 -2.7988815476542026 -2.4874640778724793
lowerback 9.328170227291299 0.3511286551706275 0.6531613084629151
upperback -0.06694303543609337 0.6821378050741136 1.7433129470488016
thorax -5.199597053854261 0.35502875952650637 1.3708256578595073
lowerneck -16.44109481871634 -2.9584327240807644 -1.9309575977515032
upperneck 19.901356377443282 -3.7924143002165946 0.7058109360972002
head 9.054311545370844 -1.8407317191100172 0.08325077458817043
rclavicle -6.567362573245707E-16 -4.814715464399137E-16
rhumerus -23.57054139516272 -18.887402254165885 -74.8177796832496
rradius 27.04282226244339
rwrist 6.561501585736924
rhand -15.737662219221388 20.908475577356093
rfingers 7.125020000000031
rthumb 10.430620888816536 -8.56087548697871
lclavicle -6.52601117269188E-16 -3.2650223531800686E-16
lhumerus -29.47163840132567 1.4725245039956016 77.73873187562597
lradius 28.79576000134593
lwrist 3.013757035300104
lhand -23.615311498552256 23.32996903276336
lfingers 7.1250200000000365
lthumb 2.795437031134618 52.984961538232675
rfemur -1.494644593481354 -9.363872421103181 12.80509002539138
rtibia 39.04277478173683
rfoot -9.122085838965004 -8.351277426933738
rtoes 6.583589751381833
lfemur -14.426182259067026 -0.4580932643867257 -20.82795476598236
ltibia 34.393556065313874
lfoot -9.239839825207362 -0.34026294054522666
ltoes -1.9678469618060337
264
root 0 0 0 -0.8804326386364281 -2.7989434315443678 -2.487489018165501
lowerback 9.328129744359625 0.35113275866895344 0.6531550321907438
upperback -0.06697199188412206 0.6821403834675677 1.7433130205088752
thorax -5.1996069162015 0.35503064115287597 1.3708304632993356
lowerneck -16.441079272001765 -2.9584184566129914 -1.9309492322928272
upperneck 19.901361689299332 -3.792400402689817 0.7058226092376305
head 9.054310716337433 -1.8407224306347638 0.0832545038657857
rclavicle -6.567350685901709E-16 -4.814701168989448E-16
rhumerus -23.57068725984267 -18.88738524665824 -74.81790062300954
rradius 27.04281449600482
rwrist 6.561437777443569
rhand -15.737738784716477 20.90853637804078
rfingers 7.125020000000031
rthumb 10.43054668865116 -8.56082256755061
lclavicle -6.526090353927161E-16 -3.2650249361741243E-16
lhumerus -29.471681938896424 1.4725258457750305 77.73878235624326
lradius 28.79574176716801
lwrist 3.01377333170975
lhand -23.615366100702513 23.32997434369695
lfingers 7.1250200000000365
lthumb 2.795383934834458 52.98497338176385
rfemur -1.4933607689609545 -9.365361307078814 12.803655012608473
rtibia 39.04270232209998
rfoot -9.122283047952264 -8.351475718557003
rtoes 6.583834106768947
lfemur -14.426333973625674 -0.45804833129045797 -20.827988584882256
ltibia 34.393616363771805
lfoot -9.23988376672747 -0.34019119362936934
ltoes -1.967790773390842
265
root 0 0 0 -0.8803626744311508 -2.7989939180093835 -2.487508806268824
lowerback 9.32809744744247 0.3511360976279423 0.6531497022063362
upperback -0.06699518343333466 0.6821422807333695 1.7433130045192788
thorax -5.199615095436446 0.35503210240202193 1.3708344146816076
lowerneck -16.441066874293938 -2.9584067185714917 -1.9309424507166395
upperneck 19.901365532066244 -3.7923891237313696 0.7058321933119678
head 9.054309858973562 -1.840714752850904 0.08325758008857909
rclavicle -6.567336577121099E-16 -4.814688440728631E-16
rhumerus -23.570800420269123 -18.887371724728975 -74.8179985529241
rradius 27.04280777504748
rwrist 6.56138900001703
rhand -15.737800066349624 20.908584814004403
rfingers 7.125020000000031
rthumb 10.430487204034309 -8.560780267982597
lclavicle -6.526166926947685E-16 -3.265024571455867E-16
lhumerus -29.471731682972298 1.4725253976375132 77.7388436702183
lradius 28.795722245209696
lwrist 3.013794993964467
lhand -23.615427348491654 23.32997901489148
lfingers 7.1250200000000365
lthumb 2.7953244295974606 52.98498533287162
rfemur -1.49217479306067 -9.366733526079855 12.802333604245987
rtibia 39.04262781157539
rfoot -9.122466844536849 -8.351658835805736
rtoes 6.584057321137514
lfemur -14.426475067090685 -0.4580064776021828 -20.82802004175198
ltibia 34.393672823226524
lfoot -9.239924330681442 -0.34012450640995695
ltoes -1.9677386435249495
266
root 0 0 0 -0.8803076808052133 -2.7990343611461306 -2.4875240426424794
lowerback 9.328072153566612 0.35113874301476167 0.6531451410214077
upperback -0.06701342243862918 0.682143550186483 1.7433129403735161
thorax -5.199621812552294 0.3550331813187597 1.3708376804546076
lowerneck -16.441057147582807 -2.9583972006352797 -1.930937067076472
upperneck 19.901368179380775 -3.792380140330968 0.7058399658227068
head 9.054308999836607 -1.8407084964152434 0.0832600908731359
rclavicle -6.567320699719571E-16 -4.814677155489081E-16
rhumerus -23.570885324665966 -18.887361222654746 -74.81807647947673
rradius 27.042801979780045
rwrist 6.561353188506949
rhand -15.737848092003254 20.908622532993867
rfingers 7.125020000000031
rthumb 10.430440486211452 -8.560747177976186
lclavicle -6.526240584082717E-16 -3.2650219056984204E-16
lhumerus -29.471785752912197 1.4725235505427339 77.73891286225214
lradius 28.795701926353466
lwrist 3.0138206508102687
lhand -23.615493173365138 23.32998312332609
lfingers 7.1250200000000365
lthumb 2.7952605186380666 52.984997232679255
rfemur -1.491077652703197 -9.368000068852325 12.801115037748772
rtibia 39.042551937661806
rfoot -9.122638375072073 -8.351828182288326
rtoes 6.584261524566408
lfemur -14.426606868412591 -0.4579673178239734 -20.828049435369685
ltibia 34.39372592183795
lfoot -9.23996194069125 -0.3400622426006983
ltoes -1.9676900645265665
267
root 0 0 0 -0.8802655661945167 -2.799065980017801 -2.4875352717018124
lowerback 9.328052837779147 0.35114076272841643 0.6531412024802243
upperback -0.06702741591252881 0.682144245927403 1.7433128593488387
thorax -5.199627261919513 0.35503391474806484 1.3708403987942108
lowerneck -16.44104968148477 -2.958389626329607 -1.9309329134003508
upperneck 19.901369859089932 -3.792373163866068 0.7058461706132526
head 9.054308158666426 -1.8407034907372388 0.08326211301886821
rclavicle -6.567303448245624E-16 -4.814667190123647E-16
rhumerus -23.570945947299684 -18.887353324213983 -74.8181370939179
rradius 27.042797001766015
rwrist 6.561328499332777
rhand -15.737884674733822 20.908651008003808
rfingers 7.125020000000031
rthumb 10.43040479273763 -8.560722036552157
lclavicle -6.5263111222536085E-16 -3.265017467067885E-16
lhumerus -29.471842632172937 1.472520624988917 77.73898753410467
lradius 28.79568120285663
lwrist 3.0138491860189163
lhand -23.615561907398817 23.329986736119668
lfingers 7.1250200000000365
lthumb 2.7951938166220778 52.98500895815258
rfemur -1.4900612902140722 -9.36917073902012 12.799989715673505
rtibia 39.04247527873068
rfoot -9.122798668845975 -8.351985012092609
rtoes 6.584448605920205
lfemur -14.426730500203433 -0.4579305268337368 -20.828077017702434
ltibia 34.39377606080721
lfoot -9.239996956223054 -0.34000386489366363
ltoes -1.9676446065616506
